<svg width="200" height="83" viewBox="0 0 200 83" fill="none" xmlns="http://www.w3.org/2000/svg">
<path d="M35.1211 1.25431C36.3459 1.25431 37.3353 1.67831 38.089 2.5263C38.8428 3.32718 39.2197 4.34006 39.2197 5.56494V31.1461C39.2197 35.0563 38.3717 38.5189 36.6757 41.534C35.0268 44.5491 32.742 46.9046 29.8211 48.6006C26.9002 50.2966 23.5083 51.1446 19.6452 51.1446C15.7821 51.1446 12.3666 50.2966 9.39859 48.6006C6.47773 46.9046 4.1693 44.5491 2.47331 41.534C0.824438 38.5189 0 35.0563 0 31.1461V5.56494C0 4.34006 0.423997 3.32718 1.27199 2.5263C2.11998 1.67831 3.20353 1.25431 4.52263 1.25431C5.60618 1.25431 6.57195 1.67831 7.41994 2.5263C8.31505 3.32718 8.7626 4.34006 8.7626 5.56494V31.1461C8.7626 33.5016 9.25726 35.5509 10.2466 37.294C11.283 38.99 12.6257 40.3091 14.2746 41.2513C15.9705 42.1935 17.7608 42.6647 19.6452 42.6647C21.6709 42.6647 23.5554 42.1935 25.2985 41.2513C27.0416 40.3091 28.4549 38.99 29.5384 37.294C30.622 35.5509 31.1638 33.5016 31.1638 31.1461V5.56494C31.1638 4.34006 31.5171 3.32718 32.2238 2.5263C32.9304 1.67831 33.8962 1.25431 35.1211 1.25431Z" fill="white"/>
<path d="M68.9756 12.2782C72.7445 12.2782 75.524 13.1969 77.3142 15.0342C79.1045 16.8244 80.2822 19.1564 80.8475 22.0301L79.6462 21.3942L80.2116 20.2635C80.7769 19.1799 81.6484 18.0257 82.8262 16.8009C84.004 15.5289 85.4173 14.4689 87.0662 13.6209C88.7622 12.7258 90.6466 12.2782 92.7195 12.2782C96.1114 12.2782 98.679 13.0084 100.422 14.4689C102.212 15.9293 103.437 17.8844 104.097 20.3342C104.756 22.7368 105.086 25.4221 105.086 28.3901V46.4806C105.086 47.7055 104.686 48.7419 103.885 49.5899C103.084 50.3908 102.071 50.7913 100.846 50.7913C99.6212 50.7913 98.6083 50.3908 97.8074 49.5899C97.0065 48.7419 96.6061 47.7055 96.6061 46.4806V28.3901C96.6061 26.8354 96.4177 25.4457 96.0408 24.2208C95.6639 22.9488 94.9808 21.9359 93.9915 21.1822C93.0021 20.4284 91.5888 20.0515 89.7515 20.0515C87.9613 20.0515 86.4302 20.4284 85.1582 21.1822C83.8862 21.9359 82.9204 22.9488 82.2609 24.2208C81.6484 25.4457 81.3422 26.8354 81.3422 28.3901V46.4806C81.3422 47.7055 80.9418 48.7419 80.1409 49.5899C79.34 50.3908 78.3271 50.7913 77.1022 50.7913C75.8774 50.7913 74.8645 50.3908 74.0636 49.5899C73.2627 48.7419 72.8623 47.7055 72.8623 46.4806V28.3901C72.8623 26.8354 72.6738 25.4457 72.297 24.2208C71.9201 22.9488 71.237 21.9359 70.2476 21.1822C69.2583 20.4284 67.845 20.0515 66.0077 20.0515C64.2175 20.0515 62.6864 20.4284 61.4144 21.1822C60.1424 21.9359 59.1766 22.9488 58.5171 24.2208C57.9046 25.4457 57.5984 26.8354 57.5984 28.3901V46.4806C57.5984 47.7055 57.198 48.7419 56.3971 49.5899C55.5962 50.3908 54.5833 50.7913 53.3584 50.7913C52.1336 50.7913 51.1207 50.3908 50.3198 49.5899C49.5189 48.7419 49.1185 47.7055 49.1185 46.4806V17.2955C49.1185 16.0706 49.5189 15.0578 50.3198 14.2569C51.1207 13.4089 52.1336 12.9849 53.3584 12.9849C54.5833 12.9849 55.5962 13.4089 56.3971 14.2569C57.198 15.0578 57.5984 16.0706 57.5984 17.2955V20.3342L56.5384 20.1222C56.9624 19.3213 57.5513 18.4733 58.3051 17.5782C59.0588 16.636 59.9775 15.7644 61.061 14.9635C62.1446 14.1627 63.3459 13.5267 64.665 13.0556C65.9841 12.5373 67.421 12.2782 68.9756 12.2782Z" fill="white"/>
<path d="M145.216 12.2782C146.44 12.2782 147.453 12.6787 148.254 13.4795C149.055 14.2804 149.456 15.3169 149.456 16.5889V46.4806C149.456 47.7055 149.055 48.7419 148.254 49.5899C147.453 50.3908 146.44 50.7913 145.216 50.7913C143.991 50.7913 142.978 50.3908 142.177 49.5899C141.376 48.7419 140.976 47.7055 140.976 46.4806V43.018L142.53 43.654C142.53 44.2664 142.2 45.0202 141.541 45.9153C140.881 46.7633 139.986 47.6113 138.856 48.4593C137.725 49.3073 136.382 50.0375 134.828 50.6499C133.32 51.2153 131.671 51.4979 129.881 51.4979C126.63 51.4979 123.686 50.6735 121.048 49.0246C118.41 47.3286 116.313 45.0202 114.758 42.0993C113.251 39.1313 112.497 35.7394 112.497 31.9234C112.497 28.0603 113.251 24.6683 114.758 21.7475C116.313 18.7795 118.386 16.4711 120.977 14.8222C123.568 13.1262 126.442 12.2782 129.598 12.2782C131.624 12.2782 133.485 12.5844 135.181 13.1969C136.877 13.8093 138.337 14.5866 139.562 15.5289C140.834 16.4711 141.8 17.4368 142.46 18.4262C143.166 19.3684 143.52 20.1693 143.52 20.8288L140.976 21.7475V16.5889C140.976 15.364 141.376 14.3511 142.177 13.5502C142.978 12.7022 143.991 12.2782 145.216 12.2782ZM130.941 43.7246C133.014 43.7246 134.828 43.2064 136.382 42.17C137.937 41.1336 139.138 39.7202 139.986 37.93C140.881 36.1398 141.329 34.1376 141.329 31.9234C141.329 29.6621 140.881 27.6363 139.986 25.8461C139.138 24.0559 137.937 22.6426 136.382 21.6062C134.828 20.5697 133.014 20.0515 130.941 20.0515C128.915 20.0515 127.125 20.5697 125.57 21.6062C124.016 22.6426 122.791 24.0559 121.896 25.8461C121.048 27.6363 120.624 29.6621 120.624 31.9234C120.624 34.1376 121.048 36.1398 121.896 37.93C122.791 39.7202 124.016 41.1336 125.57 42.17C127.125 43.2064 128.915 43.7246 130.941 43.7246Z" fill="white"/>
<path d="M166.622 46.4806C166.622 47.7055 166.222 48.7419 165.421 49.5899C164.62 50.3908 163.607 50.7913 162.382 50.7913C161.158 50.7913 160.145 50.3908 159.344 49.5899C158.543 48.7419 158.142 47.7055 158.142 46.4806V17.2955C158.142 16.0706 158.543 15.0578 159.344 14.2569C160.145 13.4089 161.158 12.9849 162.382 12.9849C163.607 12.9849 164.62 13.4089 165.421 14.2569C166.222 15.0578 166.622 16.0706 166.622 17.2955V46.4806Z" fill="white"/>
<path d="M179.578 50.7913C178.353 50.7913 177.34 50.3908 176.539 49.5899C175.738 48.7419 175.338 47.7055 175.338 46.4806V17.2955C175.338 16.0706 175.738 15.0578 176.539 14.2569C177.34 13.4089 178.353 12.9849 179.578 12.9849C180.802 12.9849 181.815 13.4089 182.616 14.2569C183.417 15.0578 183.817 16.0706 183.817 17.2955V23.9381L183.323 19.2035C183.841 18.0728 184.501 17.0835 185.301 16.2355C186.149 15.3404 187.092 14.6102 188.128 14.0449C189.165 13.4324 190.272 12.9849 191.449 12.7022C192.627 12.4196 193.805 12.2782 194.983 12.2782C196.396 12.2782 197.574 12.6787 198.516 13.4795C199.505 14.2804 200 15.2226 200 16.3062C200 17.8608 199.6 18.9915 198.799 19.6982C197.998 20.3577 197.126 20.6875 196.184 20.6875C195.289 20.6875 194.464 20.5226 193.711 20.1928C193.004 19.8631 192.18 19.6982 191.237 19.6982C190.389 19.6982 189.518 19.9102 188.623 20.3342C187.775 20.711 186.974 21.3235 186.22 22.1715C185.513 23.0195 184.925 24.0795 184.453 25.3515C184.029 26.5763 183.817 28.0368 183.817 29.7328V46.4806C183.817 47.7055 183.417 48.7419 182.616 49.5899C181.815 50.3908 180.802 50.7913 179.578 50.7913Z" fill="white"/>
<circle cx="162.532" cy="4.41663" r="4.41663" fill="#FF0000"/>
<path d="M60.2 67.083C60.3587 67.083 60.4833 67.1283 60.574 67.219C60.676 67.3097 60.727 67.423 60.727 67.559C60.727 67.6383 60.71 67.7233 60.676 67.814L56.137 78.66C56.0803 78.7733 56.0067 78.8583 55.916 78.915C55.8253 78.9717 55.7347 79 55.644 79C55.542 79 55.4457 78.9717 55.355 78.915C55.2643 78.8583 55.202 78.779 55.168 78.677L50.646 67.848C50.6347 67.814 50.6233 67.7743 50.612 67.729C50.6007 67.6837 50.595 67.6327 50.595 67.576C50.595 67.4287 50.646 67.3097 50.748 67.219C50.8613 67.1283 50.9747 67.083 51.088 67.083C51.326 67.083 51.496 67.2077 51.598 67.457L55.848 77.623H55.542L59.724 67.423C59.8373 67.1963 59.996 67.083 60.2 67.083ZM66.8647 78.49C66.8647 78.626 66.8137 78.745 66.7117 78.847C66.6097 78.949 66.4907 79 66.3547 79C66.2073 79 66.0827 78.949 65.9807 78.847C65.89 78.745 65.8447 78.626 65.8447 78.49V70.67C65.8447 70.534 65.89 70.415 65.9807 70.313C66.0827 70.211 66.2073 70.16 66.3547 70.16C66.502 70.16 66.621 70.211 66.7117 70.313C66.8137 70.415 66.8647 70.534 66.8647 70.67V78.49ZM66.3547 69.021C66.1167 69.021 65.9353 68.97 65.8107 68.868C65.6973 68.7547 65.6407 68.596 65.6407 68.392V68.222C65.6407 68.018 65.703 67.865 65.8277 67.763C65.9637 67.6497 66.145 67.593 66.3717 67.593C66.587 67.593 66.7513 67.6497 66.8647 67.763C66.9893 67.865 67.0517 68.018 67.0517 68.222V68.392C67.0517 68.596 66.9893 68.7547 66.8647 68.868C66.7513 68.97 66.5813 69.021 66.3547 69.021ZM79.8674 66.42C80.0147 66.42 80.1337 66.471 80.2244 66.573C80.3264 66.6637 80.3774 66.7827 80.3774 66.93V78.49C80.3774 78.626 80.3264 78.745 80.2244 78.847C80.1224 78.949 80.0034 79 79.8674 79C79.7201 79 79.5954 78.949 79.4934 78.847C79.4027 78.745 79.3574 78.626 79.3574 78.49V76.467L79.6464 76.229C79.6464 76.5463 79.5614 76.8807 79.3914 77.232C79.2214 77.572 78.9777 77.8893 78.6604 78.184C78.3544 78.4787 77.9917 78.7167 77.5724 78.898C77.1644 79.0793 76.7224 79.17 76.2464 79.17C75.4871 79.17 74.8014 78.9717 74.1894 78.575C73.5887 78.1783 73.1127 77.64 72.7614 76.96C72.4101 76.28 72.2344 75.5037 72.2344 74.631C72.2344 73.7697 72.4101 72.999 72.7614 72.319C73.1127 71.6277 73.5887 71.0893 74.1894 70.704C74.7901 70.3073 75.4701 70.109 76.2294 70.109C76.6941 70.109 77.1361 70.194 77.5554 70.364C77.9747 70.534 78.3431 70.7663 78.6604 71.061C78.9891 71.3557 79.2441 71.6957 79.4254 72.081C79.6181 72.455 79.7144 72.846 79.7144 73.254L79.3574 72.999V66.93C79.3574 66.794 79.4027 66.675 79.4934 66.573C79.5954 66.471 79.7201 66.42 79.8674 66.42ZM76.3314 78.218C76.9434 78.218 77.4761 78.065 77.9294 77.759C78.3941 77.4417 78.7567 77.0167 79.0174 76.484C79.2894 75.94 79.4254 75.3223 79.4254 74.631C79.4254 73.951 79.2894 73.3447 79.0174 72.812C78.7567 72.268 78.3941 71.843 77.9294 71.537C77.4647 71.2197 76.9321 71.061 76.3314 71.061C75.7421 71.061 75.2094 71.2197 74.7334 71.537C74.2687 71.843 73.9004 72.268 73.6284 72.812C73.3677 73.3447 73.2374 73.951 73.2374 74.631C73.2374 75.311 73.3677 75.923 73.6284 76.467C73.9004 77.011 74.2687 77.4417 74.7334 77.759C75.2094 78.065 75.7421 78.218 76.3314 78.218ZM90.211 79.17C89.3383 79.17 88.5676 78.983 87.899 78.609C87.2303 78.235 86.709 77.7137 86.335 77.045C85.961 76.3763 85.774 75.5943 85.774 74.699C85.774 73.7357 85.961 72.914 86.335 72.234C86.7203 71.554 87.2133 71.0327 87.814 70.67C88.426 70.296 89.072 70.109 89.752 70.109C90.2506 70.109 90.7323 70.1997 91.197 70.381C91.673 70.551 92.0923 70.8117 92.455 71.163C92.829 71.503 93.1236 71.9223 93.339 72.421C93.5656 72.9197 93.6903 73.4977 93.713 74.155C93.7016 74.291 93.645 74.41 93.543 74.512C93.441 74.6027 93.322 74.648 93.186 74.648H86.369L86.165 73.73H92.863L92.642 73.934V73.594C92.5966 73.0613 92.4266 72.608 92.132 72.234C91.8373 71.86 91.4803 71.5767 91.061 71.384C90.6416 71.1913 90.2053 71.095 89.752 71.095C89.412 71.095 89.0606 71.163 88.698 71.299C88.3466 71.435 88.0236 71.6503 87.729 71.945C87.4456 72.2283 87.2133 72.5967 87.032 73.05C86.8506 73.492 86.76 74.019 86.76 74.631C86.76 75.2997 86.896 75.906 87.168 76.45C87.44 76.994 87.831 77.4247 88.341 77.742C88.8623 78.0593 89.48 78.218 90.194 78.218C90.5906 78.218 90.9476 78.1613 91.265 78.048C91.5823 77.9347 91.86 77.7873 92.098 77.606C92.336 77.4133 92.5343 77.215 92.693 77.011C92.8176 76.909 92.9423 76.858 93.067 76.858C93.1803 76.858 93.2766 76.9033 93.356 76.994C93.4466 77.0847 93.492 77.1867 93.492 77.3C93.492 77.436 93.4353 77.555 93.322 77.657C92.982 78.065 92.54 78.422 91.996 78.728C91.452 79.0227 90.857 79.17 90.211 79.17ZM107.218 74.648C107.218 75.5093 107.031 76.2857 106.657 76.977C106.283 77.657 105.773 78.1953 105.127 78.592C104.481 78.9773 103.745 79.17 102.917 79.17C102.113 79.17 101.382 78.9773 100.724 78.592C100.078 78.1953 99.5626 77.657 99.1773 76.977C98.8033 76.2857 98.6163 75.5093 98.6163 74.648C98.6163 73.7753 98.8033 72.999 99.1773 72.319C99.5626 71.639 100.078 71.1007 100.724 70.704C101.382 70.3073 102.113 70.109 102.917 70.109C103.745 70.109 104.481 70.3073 105.127 70.704C105.773 71.1007 106.283 71.639 106.657 72.319C107.031 72.999 107.218 73.7753 107.218 74.648ZM106.198 74.648C106.198 73.9567 106.057 73.3447 105.773 72.812C105.49 72.268 105.099 71.843 104.6 71.537C104.113 71.2197 103.552 71.061 102.917 71.061C102.305 71.061 101.75 71.2197 101.251 71.537C100.753 71.843 100.356 72.268 100.061 72.812C99.7779 73.3447 99.6363 73.9567 99.6363 74.648C99.6363 75.3393 99.7779 75.9513 100.061 76.484C100.356 77.0167 100.753 77.4417 101.251 77.759C101.75 78.065 102.305 78.218 102.917 78.218C103.552 78.218 104.113 78.065 104.6 77.759C105.099 77.4417 105.49 77.0167 105.773 76.484C106.057 75.9513 106.198 75.3393 106.198 74.648ZM129.436 67.984C129.572 68.0747 129.652 68.1937 129.674 68.341C129.697 68.477 129.663 68.613 129.572 68.749C129.493 68.851 129.391 68.9077 129.266 68.919C129.142 68.9303 129.023 68.9077 128.909 68.851C128.479 68.5677 128.014 68.3467 127.515 68.188C127.028 68.0293 126.501 67.95 125.934 67.95C125.243 67.95 124.597 68.0747 123.996 68.324C123.407 68.562 122.891 68.9133 122.449 69.378C122.007 69.8313 121.662 70.3697 121.412 70.993C121.174 71.6163 121.055 72.302 121.055 73.05C121.055 73.8207 121.18 74.5233 121.429 75.158C121.679 75.7813 122.024 76.3197 122.466 76.773C122.92 77.2263 123.441 77.572 124.03 77.81C124.62 78.048 125.254 78.167 125.934 78.167C126.49 78.167 127.011 78.0877 127.498 77.929C127.997 77.7703 128.462 77.555 128.892 77.283C129.006 77.215 129.125 77.1923 129.249 77.215C129.385 77.2263 129.493 77.2887 129.572 77.402C129.674 77.5267 129.708 77.6627 129.674 77.81C129.652 77.946 129.578 78.0537 129.453 78.133C129.17 78.3143 128.836 78.4843 128.45 78.643C128.065 78.8017 127.657 78.9263 127.226 79.017C126.796 79.119 126.365 79.17 125.934 79.17C125.118 79.17 124.353 79.0227 123.639 78.728C122.925 78.4333 122.291 78.0197 121.735 77.487C121.18 76.943 120.744 76.297 120.426 75.549C120.12 74.801 119.967 73.968 119.967 73.05C119.967 72.166 120.12 71.3557 120.426 70.619C120.732 69.871 121.157 69.225 121.701 68.681C122.245 68.137 122.88 67.712 123.605 67.406C124.331 67.1 125.107 66.947 125.934 66.947C126.58 66.947 127.204 67.0377 127.804 67.219C128.405 67.4003 128.949 67.6553 129.436 67.984ZM135.341 79C135.182 79 135.058 78.949 134.967 78.847C134.876 78.745 134.831 78.626 134.831 78.49V70.874C134.831 70.738 134.876 70.619 134.967 70.517C135.069 70.415 135.194 70.364 135.341 70.364C135.488 70.364 135.607 70.415 135.698 70.517C135.8 70.619 135.851 70.738 135.851 70.874V73.424L135.596 73.475C135.63 73.0783 135.726 72.6873 135.885 72.302C136.055 71.9053 136.282 71.5427 136.565 71.214C136.848 70.8853 137.183 70.619 137.568 70.415C137.965 70.211 138.407 70.109 138.894 70.109C139.098 70.109 139.296 70.1543 139.489 70.245C139.682 70.3243 139.778 70.4603 139.778 70.653C139.778 70.823 139.733 70.9533 139.642 71.044C139.551 71.1347 139.444 71.18 139.319 71.18C139.217 71.18 139.104 71.1517 138.979 71.095C138.866 71.0383 138.713 71.01 138.52 71.01C138.203 71.01 137.885 71.1063 137.568 71.299C137.251 71.4803 136.962 71.7297 136.701 72.047C136.44 72.3643 136.231 72.7213 136.072 73.118C135.925 73.5033 135.851 73.8943 135.851 74.291V78.49C135.851 78.626 135.8 78.745 135.698 78.847C135.596 78.949 135.477 79 135.341 79ZM148.147 79.17C147.274 79.17 146.504 78.983 145.835 78.609C145.166 78.235 144.645 77.7137 144.271 77.045C143.897 76.3763 143.71 75.5943 143.71 74.699C143.71 73.7357 143.897 72.914 144.271 72.234C144.656 71.554 145.149 71.0327 145.75 70.67C146.362 70.296 147.008 70.109 147.688 70.109C148.187 70.109 148.668 70.1997 149.133 70.381C149.609 70.551 150.028 70.8117 150.391 71.163C150.765 71.503 151.06 71.9223 151.275 72.421C151.502 72.9197 151.626 73.4977 151.649 74.155C151.638 74.291 151.581 74.41 151.479 74.512C151.377 74.6027 151.258 74.648 151.122 74.648H144.305L144.101 73.73H150.799L150.578 73.934V73.594C150.533 73.0613 150.363 72.608 150.068 72.234C149.773 71.86 149.416 71.5767 148.997 71.384C148.578 71.1913 148.141 71.095 147.688 71.095C147.348 71.095 146.997 71.163 146.634 71.299C146.283 71.435 145.96 71.6503 145.665 71.945C145.382 72.2283 145.149 72.5967 144.968 73.05C144.787 73.492 144.696 74.019 144.696 74.631C144.696 75.2997 144.832 75.906 145.104 76.45C145.376 76.994 145.767 77.4247 146.277 77.742C146.798 78.0593 147.416 78.218 148.13 78.218C148.527 78.218 148.884 78.1613 149.201 78.048C149.518 77.9347 149.796 77.7873 150.034 77.606C150.272 77.4133 150.47 77.215 150.629 77.011C150.754 76.909 150.878 76.858 151.003 76.858C151.116 76.858 151.213 76.9033 151.292 76.994C151.383 77.0847 151.428 77.1867 151.428 77.3C151.428 77.436 151.371 77.555 151.258 77.657C150.918 78.065 150.476 78.422 149.932 78.728C149.388 79.0227 148.793 79.17 148.147 79.17ZM164.252 70.313C164.399 70.313 164.518 70.364 164.609 70.466C164.711 70.568 164.762 70.6927 164.762 70.84V78.49C164.762 78.626 164.711 78.745 164.609 78.847C164.507 78.949 164.388 79 164.252 79C164.104 79 163.98 78.949 163.878 78.847C163.787 78.745 163.742 78.626 163.742 78.49V76.467L164.031 76.331C164.031 76.6483 163.94 76.9713 163.759 77.3C163.589 77.6287 163.351 77.9347 163.045 78.218C162.739 78.5013 162.376 78.7337 161.957 78.915C161.549 79.085 161.107 79.17 160.631 79.17C159.86 79.17 159.169 78.9717 158.557 78.575C157.956 78.1783 157.48 77.6343 157.129 76.943C156.789 76.2517 156.619 75.4753 156.619 74.614C156.619 73.73 156.794 72.9537 157.146 72.285C157.497 71.605 157.973 71.0723 158.574 70.687C159.174 70.3017 159.854 70.109 160.614 70.109C161.101 70.109 161.554 70.194 161.974 70.364C162.404 70.534 162.778 70.7663 163.096 71.061C163.413 71.3557 163.657 71.6957 163.827 72.081C164.008 72.455 164.099 72.846 164.099 73.254L163.742 72.999V70.84C163.742 70.6927 163.787 70.568 163.878 70.466C163.98 70.364 164.104 70.313 164.252 70.313ZM160.716 78.218C161.316 78.218 161.849 78.065 162.314 77.759C162.778 77.4417 163.141 77.011 163.402 76.467C163.674 75.9117 163.81 75.294 163.81 74.614C163.81 73.9453 163.674 73.3447 163.402 72.812C163.141 72.2793 162.778 71.8543 162.314 71.537C161.849 71.2197 161.316 71.061 160.716 71.061C160.126 71.061 159.594 71.214 159.118 71.52C158.653 71.826 158.285 72.2453 158.013 72.778C157.752 73.3107 157.622 73.9227 157.622 74.614C157.622 75.294 157.752 75.9117 158.013 76.467C158.285 77.011 158.653 77.4417 159.118 77.759C159.582 78.065 160.115 78.218 160.716 78.218ZM170.107 70.347H174.068C174.204 70.347 174.318 70.398 174.408 70.5C174.499 70.5907 174.544 70.704 174.544 70.84C174.544 70.9647 174.499 71.0723 174.408 71.163C174.318 71.2537 174.204 71.299 174.068 71.299H170.107C169.971 71.299 169.852 71.2537 169.75 71.163C169.66 71.061 169.614 70.9477 169.614 70.823C169.614 70.687 169.66 70.5737 169.75 70.483C169.852 70.3923 169.971 70.347 170.107 70.347ZM171.858 67.95C172.006 67.95 172.125 68.001 172.215 68.103C172.317 68.205 172.368 68.324 172.368 68.46V76.994C172.368 77.3113 172.408 77.5493 172.487 77.708C172.578 77.8667 172.691 77.9743 172.827 78.031C172.963 78.0763 173.099 78.099 173.235 78.099C173.326 78.099 173.405 78.0877 173.473 78.065C173.553 78.031 173.638 78.014 173.728 78.014C173.83 78.014 173.915 78.0537 173.983 78.133C174.063 78.2123 174.102 78.3143 174.102 78.439C174.102 78.5977 174.012 78.7337 173.83 78.847C173.649 78.949 173.434 79 173.184 79C173.082 79 172.929 78.9943 172.725 78.983C172.521 78.9603 172.312 78.898 172.096 78.796C171.881 78.6827 171.7 78.49 171.552 78.218C171.416 77.946 171.348 77.555 171.348 77.045V68.46C171.348 68.324 171.394 68.205 171.484 68.103C171.586 68.001 171.711 67.95 171.858 67.95ZM187.668 74.648C187.668 75.5093 187.481 76.2857 187.107 76.977C186.733 77.657 186.223 78.1953 185.577 78.592C184.931 78.9773 184.194 79.17 183.367 79.17C182.562 79.17 181.831 78.9773 181.174 78.592C180.528 78.1953 180.012 77.657 179.627 76.977C179.253 76.2857 179.066 75.5093 179.066 74.648C179.066 73.7753 179.253 72.999 179.627 72.319C180.012 71.639 180.528 71.1007 181.174 70.704C181.831 70.3073 182.562 70.109 183.367 70.109C184.194 70.109 184.931 70.3073 185.577 70.704C186.223 71.1007 186.733 71.639 187.107 72.319C187.481 72.999 187.668 73.7753 187.668 74.648ZM186.648 74.648C186.648 73.9567 186.506 73.3447 186.223 72.812C185.94 72.268 185.549 71.843 185.05 71.537C184.563 71.2197 184.002 71.061 183.367 71.061C182.755 71.061 182.2 71.2197 181.701 71.537C181.202 71.843 180.806 72.268 180.511 72.812C180.228 73.3447 180.086 73.9567 180.086 74.648C180.086 75.3393 180.228 75.9513 180.511 76.484C180.806 77.0167 181.202 77.4417 181.701 77.759C182.2 78.065 182.755 78.218 183.367 78.218C184.002 78.218 184.563 78.065 185.05 77.759C185.549 77.4417 185.94 77.0167 186.223 76.484C186.506 75.9513 186.648 75.3393 186.648 74.648ZM193.576 79C193.417 79 193.293 78.949 193.202 78.847C193.111 78.745 193.066 78.626 193.066 78.49V70.874C193.066 70.738 193.111 70.619 193.202 70.517C193.304 70.415 193.429 70.364 193.576 70.364C193.723 70.364 193.842 70.415 193.933 70.517C194.035 70.619 194.086 70.738 194.086 70.874V73.424L193.831 73.475C193.865 73.0783 193.961 72.6873 194.12 72.302C194.29 71.9053 194.517 71.5427 194.8 71.214C195.083 70.8853 195.418 70.619 195.803 70.415C196.2 70.211 196.642 70.109 197.129 70.109C197.333 70.109 197.531 70.1543 197.724 70.245C197.917 70.3243 198.013 70.4603 198.013 70.653C198.013 70.823 197.968 70.9533 197.877 71.044C197.786 71.1347 197.679 71.18 197.554 71.18C197.452 71.18 197.339 71.1517 197.214 71.095C197.101 71.0383 196.948 71.01 196.755 71.01C196.438 71.01 196.12 71.1063 195.803 71.299C195.486 71.4803 195.197 71.7297 194.936 72.047C194.675 72.3643 194.466 72.7213 194.307 73.118C194.16 73.5033 194.086 73.8943 194.086 74.291V78.49C194.086 78.626 194.035 78.745 193.933 78.847C193.831 78.949 193.712 79 193.576 79Z" fill="white"/>
</svg>
